# xmcd CD database file generated by Grip 3.2.0
# 
# Track frame offsets:
#       150
#       25020
#       52981
#       86078
#       111882
#       127656
#       157729
#       185300
#       210932
#       234132
# 
# Disc length: 3349 seconds
# 
# Revision: 1
# Processed by: cddbd v1.5.2PL0 Copyright (c) Steve Scherf et al.
# Submitted via: Grip 3.2.0
# 
DISCID=650d130a
DTITLE=Trio Lorraine Desmarais and Jean-Pierre Zanella - Jazz pour Noel (for Ch
DTITLE=ristmas)
DYEAR=2005
DGENRE=Jazz
TTITLE0=Ave Maria
TTITLE1=Little Drummer Boy (L'enfant au Tambour)
TTITLE2=Santa Claus is Coming to Town
TTITLE3=Stille Nacht (Sainte Nuit - Silent Night)
TTITLE4=I Saw Mommy Kissing Santa Claus (J'ai Vu Maman Embrasser le Pere Noel)
TTITLE5=Les Anges dans Nos Campagnes (Angels We Have Heard on High)
TTITLE6=Greensleeves
TTITLE7=Jingle Bells
TTITLE8=Petit Papa Noel
TTITLE9=Sleigh Ride (La Promenade en Traineau)
EXTD=YEAR: 2005
EXTT0=
EXTT1=
EXTT2=
EXTT3=
EXTT4=
EXTT5=
EXTT6=
EXTT7=
EXTT8=
EXTT9=
PLAYORDER=
